<svg width="23" height="21" viewBox="0 0 23 21" fill="none" xmlns="http://www.w3.org/2000/svg">
<path d="M11.5298 3.60162L10.9533 4.15639C11.1042 4.31309 11.3123 4.40162 11.5298 4.40162C11.7473 4.40162 11.9554 4.31309 12.1062 4.15639L11.5298 3.60162ZM8.78423 17.2776C7.16753 16.0032 5.39972 14.7586 3.99729 13.1794C2.62228 11.631 1.66311 9.82441 1.66311 7.48052H0.0631104C0.0631104 10.3237 1.24764 12.4928 2.80094 14.2418C4.32682 15.96 6.27193 17.3345 7.79369 18.5342L8.78423 17.2776ZM1.66311 7.48052C1.66311 5.18626 2.9595 3.2623 4.72909 2.45342C6.44825 1.66759 8.75821 1.8757 10.9533 4.15639L12.1062 3.04685C9.50151 0.340702 6.47814 -0.105304 4.06392 0.998237C1.70013 2.07873 0.0631104 4.58765 0.0631104 7.48052H1.66311ZM7.79369 18.5342C8.34007 18.9649 8.92662 19.4242 9.52103 19.7715C10.1153 20.1187 10.7933 20.4009 11.5298 20.4009V18.8009C11.1995 18.8009 10.8109 18.6722 10.3283 18.3901C9.84583 18.1081 9.34533 17.72 8.78423 17.2776L7.79369 18.5342ZM15.2659 18.5342C16.7876 17.3345 18.7328 15.96 20.2586 14.2418C21.8119 12.4928 22.9964 10.3237 22.9964 7.48052H21.3964C21.3964 9.82441 20.4373 11.631 19.0623 13.1794C17.6598 14.7586 15.892 16.0032 14.2754 17.2776L15.2659 18.5342ZM22.9964 7.48052C22.9964 4.58765 21.3594 2.07873 18.9956 0.998237C16.5814 -0.105304 13.558 0.340702 10.9533 3.04685L12.1062 4.15639C14.3013 1.8757 16.6113 1.66759 18.3304 2.45342C20.1 3.2623 21.3964 5.18626 21.3964 7.48052H22.9964ZM14.2754 17.2776C13.7142 17.72 13.2137 18.1081 12.7313 18.3901C12.2486 18.6722 11.86 18.8009 11.5298 18.8009V20.4009C12.2662 20.4009 12.9443 20.1187 13.5385 19.7715C14.133 19.4242 14.7194 18.9649 15.2659 18.5342L14.2754 17.2776Z" fill="#656565"/>
</svg>
